<svg viewBox="0 0 77 64" fill="none" xmlns="http://www.w3.org/2000/svg"><g clip-path="url(#a)" fill="#000"><path d="M29.553 50.892h.839v-3.051h2.131v-.71h-5.101v.71h2.131v3.051ZM26.462 47.13h-.839v3.762h.839V47.13ZM55.22 47.148h-3.068v3.756h.839v-3.046h2.032c.791 0 1.287.291 1.287 1.176v1.87h.839v-1.975c0-1.001-.577-1.781-1.928-1.781ZM49.147 46.682h1.234a.271.271 0 0 0 0-.542h-1.234a.274.274 0 0 0-.274.274c0 .146.122.268.274.268ZM37.1 49.417c1.162-.027 1.543-.336 1.543-1.128 0-.716-.512-1.141-1.38-1.141h-3.779v3.756h.839v-3.046h2.946c.332 0 .507.15.507.448 0 .262-.083.516-.623.5h-2.12v.217l2.586 1.869h1.217l-2.15-1.475h.415ZM43.249 47.068c-.255-.01-.516-.016-.775-.016-.441 0-.728.016-.73.016h-.014c-.61.02-1.13.223-1.503.588a1.89 1.89 0 0 0-.555 1.367v.006c0 1.14.829 1.926 2.063 1.955a17.957 17.957 0 0 0 1.506 0h.014c.61-.02 1.13-.223 1.503-.588.358-.35.555-.836.555-1.367v-.006c0-1.118-.83-1.904-2.064-1.955Zm1.17 1.948c-.003.724-.474 1.194-1.23 1.226h-.033a8.129 8.129 0 0 1-.607.017c-.256 0-.502-.005-.73-.017h-.014c-.764-.02-1.239-.49-1.239-1.226 0-.73.471-1.201 1.23-1.233h.032c.003 0 .319-.016.751-.016.243 0 .347.005.554.014l.033.002c.784.036 1.253.495 1.253 1.227v.006ZM50.98 50.193h-3.738v-.844h3.278v-.68h-3.278v-.811h3.738v-.71h-4.577v3.756h4.577v-.71ZM47.004 46.682h1.229a.271.271 0 0 0 0-.542h-1.229a.274.274 0 0 0-.274.274c0 .146.122.268.274.268ZM21.231 47.16h-.013c-.598.018-1.108.211-1.474.558-.351.332-.544.792-.544 1.297v.005c0 1.083.813 1.829 2.023 1.856.34.015 1.367.016 1.793.016.551 0 1.077-.002 1.232-.005v-.719c-.234.003-2.017.005-2.227.005-.249 0-.498-.004-.723-.015-.741-.017-1.221-.464-1.221-1.138 0-.673.473-1.127 1.206-1.155h.032c.003 0 .31-.016.735-.016.119 0 1.95.003 2.199.007v-.706a39.111 39.111 0 0 0-.766-.006c-.943 0-2.239.015-2.252.016ZM38.175 14c-6.222 0-11.283 6.282-11.283 14.002 0 7.721 5.061 14.003 11.283 14.003 6.221 0 11.283-6.281 11.283-14.003 0-7.72-5.061-14.002-11.283-14.002ZM28.97 32.849l-.01-.033a12.169 12.169 0 0 1-.487-2.179v-.014l.01-.009 9.69-7.165 9.703 7.174-.002.014c-.001.01-.112 1.023-.486 2.18l-.01.032-.028-.02-9.177-6.805-9.203 6.826v-.001Zm9.204 7.835c-3.232 0-6.257-2.002-8.13-5.365l-.022-.043 8.151-6.028 8.153 6.029-.021.039c-1.872 3.365-4.898 5.367-8.131 5.367Zm0-20.513-9.953 7.382.001-.051c.1-3.275 1.18-6.338 3.041-8.623 1.868-2.294 4.322-3.557 6.91-3.557 2.59 0 5.044 1.263 6.911 3.557 1.86 2.285 2.94 5.348 3.041 8.623l.002.05-.042-.03-9.911-7.351Z"/></g><defs><clipPath id="a"><path fill="#fff" d="M19.2 14h37.95v37H19.2z"/></clipPath></defs></svg>