<svg viewBox="0 0 77 64" fill="none" xmlns="http://www.w3.org/2000/svg"><g clip-path="url(#a)"><path d="M38.955 20.356c-16.718 0-30.119 5.011-30.119 11.294 0 6.244 13.512 11.294 30.119 11.294s30.118-5.067 30.118-11.294-13.511-11.294-30.118-11.294Z" fill="#000"/><path d="M50.818 34.042c.008.052.076.101.142.125.024.008.036.024.01.079-.187.402-.36.634-.594.983a3.69 3.69 0 0 1-.755.816c-.445.369-1.063.77-1.574.5-.226-.118-.325-.435-.32-.692.01-.723.332-1.465.926-2.194.724-.892 1.524-1.354 2.049-1.101.543.259.37.888.127 1.382a.138.138 0 0 0-.011.102m5.83-5.632c.04-.07-.002-.12-.089-.12l-1.522.002c-.112 0-.17.013-.224.118-.174.334-2.301 3.522-2.697 4.141-.067.095-.148.081-.158-.027-.04-.367-.357-.79-.858-.992a2.18 2.18 0 0 0-1.141-.131c-.7.094-1.323.463-1.871.879-.826.628-1.538 1.441-2.458 2.043-.502.327-1.19.613-1.65.186-.417-.386-.37-1.243.268-1.906.067-.07.147-.011.135.05-.06.3.013.599.24.808.279.25.677.277 1.017.11.402-.198.638-.583.707-1.019.106-.677-.415-1.274-1.067-1.322-.53-.037-1.037.148-1.532.556a2.937 2.937 0 0 0-.603.663c-.053.075-.133.083-.13-.028.024-.867-.334-1.354-1.05-1.37-.557-.014-1.15.288-1.614.657-.507.408-.951.948-1.427 1.456-.06.062-.11.06-.127-.062-.014-.574-.16-1.13-.425-1.525a.353.353 0 0 0-.458-.113c-.077.042-.344.165-.538.322-.097.08-.134.194-.092.342.257.858.2 1.833-.148 2.656-.32.755-.94 1.435-1.67 1.665-.48.153-.98.078-1.29-.348-.425-.588-.253-1.611.38-2.461.559-.748 1.367-1.223 2.174-1.53.094-.036.114-.097.087-.177-.044-.133-.114-.314-.142-.396-.074-.197-.281-.229-.534-.201-.586.068-1.114.269-1.636.548-1.367.732-2.053 2.149-2.353 2.907-.145.364-.268.591-.428.793-.215.27-.486.517-.98.951a.174.174 0 0 0-.041.2c.05.105.308.468.38.5.08.04.174-.015.212-.042.346-.234.76-.606.962-.858.072-.087.145-.05.182.08.19.675.685 1.226 1.37 1.457 1.253.422 2.553-.19 3.534-1.255.624-.676.849-1.112 1.088-1.408.405-.502 1.204-1.625 2.156-2.346.349-.266.762-.468.97-.334.166.108.22.36-.047.846-.97 1.772-2.398 3.854-2.66 4.359-.048.087-.006.156.085.156.508-.002 1.012 0 1.473 0 .076-.004.11-.04.15-.094.744-1.166 1.445-2.275 2.196-3.422.042-.068.08-.016.082.013.017.266.081.63.24.87.283.441.686.631 1.132.634.355.006.535-.05.918-.193.312-.115.562-.267.754-.404.112-.078.131.052.129.072-.173.926.04 2.022.96 2.477 1.1.543 2.31-.22 3.006-.909.068-.066.14-.06.148.084.016.263.133.575.351.793.583.585 1.76.353 2.94-.56.759-.586 1.552-1.412 2.268-2.288.027-.034.047-.088-.005-.143-.109-.115-.267-.245-.375-.346-.05-.042-.122-.03-.163.002-.735.698-1.396 1.495-2.352 2.154-.322.224-.835.406-1.066.093-.09-.12-.08-.288.008-.508.279-.695 4.69-7.411 4.919-7.807" fill="#fff"/><path d="M35.895 29.22c.019.1.057.12.103.111.224-.045.47-.23.616-.444.132-.194.195-.474.063-.587-.118-.1-.309-.072-.45.053a1 1 0 0 0-.332.868m-11.243 8.645c-1.645.01-3.094-1.005-3.26-2.765a3.552 3.552 0 0 1 .735-2.56c.49-.638 1.318-1.168 2.02-1.297.228-.042.534-.016.66.136.2.231.143.485-.056.587-.535.273-1.179.74-1.498 1.379-.258.521-.31 1.15.084 1.748.661.997 2.502 1.024 4.214-.566.424-.39.803-.763 1.189-1.206.754-.862 1.005-1.177 2.007-2.567.01-.016.016-.037.01-.047-.007-.019-.02-.022-.05-.024a3.06 3.06 0 0 0-1.82.641c-.163.12-.398.103-.501-.054-.115-.177-.032-.408.156-.538.912-.635 1.908-.75 2.926-.922-.001 0 .07.003.128-.073.418-.536.734-1.02 1.179-1.562.448-.55 1.028-1.055 1.47-1.434.619-.532 1.015-.71 1.418-.93.106-.056-.014-.122-.046-.122-2.249-.422-4.586-.97-6.82-.143-1.547.578-2.225 1.804-1.899 2.624.232.581.997.676 1.713.326a3.87 3.87 0 0 0 1.535-1.366c.218-.335.678-.093.43.49-.654 1.536-1.903 2.754-3.424 2.806-1.294.042-2.13-.91-2.127-2.085.006-2.317 2.585-3.844 5.296-4.072 3.265-.27 6.357.6 9.599.993 2.483.301 4.864.307 7.36-.266.296-.064.503.124.484.422-.024.43-.358.846-1.18 1.294-.936.513-1.914.669-2.935.677-2.47.022-4.772-.942-7.153-1.46.002.105.03.229-.057.294-1.32.973-2.512 1.961-3.31 3.35-.027.031-.014.062.034.058.693-.037 1.317-.054 1.964-.106.113-.01.117-.038.107-.12-.057-.479.083-1.024.504-1.4.43-.385.97-.43 1.327-.151.406.317.37.886.148 1.313-.226.434-.6.665-.959.778 0 0-.075.016-.064.084.014.11.503.38.545.453.04.068.019.175-.055.256a.309.309 0 0 1-.236.113c-.084-.001-.135-.03-.242-.088a2.306 2.306 0 0 1-.676-.545c-.063-.078-.095-.08-.25-.07-.7.04-1.793.145-2.532.238-.18.021-.206.056-.243.118-1.18 1.945-2.44 4.043-3.823 5.448-1.483 1.506-2.716 1.902-4.025 1.913" fill="#fff"/><path d="M38.954 22.203c-15.38 0-27.846 4.25-27.846 9.45 0 5.201 12.466 9.451 27.846 9.451 15.379 0 27.845-4.25 27.845-9.45 0-5.201-12.466-9.451-27.845-9.451Zm0 19.758c-15.94 0-28.86-4.615-28.86-10.308s12.92-10.307 28.86-10.307c15.938 0 28.858 4.614 28.858 10.307 0 5.693-12.92 10.308-28.858 10.308Z" fill="#fff"/></g><defs><clipPath id="a"><path fill="#fff" d="M8.48 20h60.949v23.3H8.48z"/></clipPath></defs></svg>