<svg viewBox="0 0 77 64" fill="none" xmlns="http://www.w3.org/2000/svg"><g clip-path="url(#a)" fill-rule="evenodd" clip-rule="evenodd"><path d="M37.821 50.65c-4.713-2.193-8.807-5.786-11.528-10.117-2.714-4.318-4.14-9.319-4.49-15.74-.11-2.048-.11-4.603 0-7.81l.05-1.463 1.444-.242A93.126 93.126 0 0 1 38.578 14c5.055 0 10.196.43 15.277 1.278l1.444.242.051 1.464c.111 3.207.111 5.762 0 7.81-.35 6.42-1.776 11.421-4.49 15.74-2.72 4.33-6.815 7.923-11.528 10.115l-.755.351-.755-.35Z" fill="#000"/><path d="M38.576 15.055c-5.097 0-10.387.434-15.757 1.357-.08 2.145-.172 5.46-.018 8.274.342 6.273 1.728 11.142 4.361 15.323 2.626 4.169 6.692 7.754 11.414 9.883 4.722-2.13 8.788-5.714 11.414-9.883 2.634-4.18 4.02-9.05 4.361-15.323.153-2.813.062-6.129-.018-8.274a93.124 93.124 0 0 0-15.757-1.357Zm0 .604c5.025 0 10.126.426 15.17 1.266.11 3.183.11 5.715 0 7.729-.336 6.166-1.692 10.943-4.269 15.034-2.576 4.09-6.44 7.469-10.9 9.539-4.462-2.07-8.325-5.449-10.902-9.54-2.577-4.09-3.933-8.867-4.27-15.033-.11-2.014-.11-4.546.002-7.729a92.57 92.57 0 0 1 15.17-1.266Z" fill="#fff"/><path d="M28.035 18.537a1.239 1.239 0 0 0-.158.007c-.747.078-1.492.164-2.236.258V21l.387-.048v-.68c.616-.075 1.232-.145 1.849-.209.446-.046.695-.232.695-.693v-.249c0-.393-.191-.575-.537-.584Zm-.043.35c.1-.01.2.066.2.166v.446c0 .096-.1.187-.2.198-.655.067-1.31.14-1.964.22v-.809c.654-.08 1.309-.154 1.964-.22ZM37.861 17.992c.698-.005 1.396-.002 2.093.007v.354a105.62 105.62 0 0 0-2.237-.005c-.101 0-.202.088-.202.189v1.101c0 .101.1.2.202.2a101.69 101.69 0 0 1 2.007.003v-.595a98.298 98.298 0 0 0-1.165-.006v-.354c.515 0 1.03.004 1.544.011V20.2c-.723-.01-1.446-.014-2.17-.01-.529.004-.798-.087-.798-.6v-.958c0-.479.24-.636.726-.64ZM45.418 18.222c-.417.001-.605.133-.605.564v.982c0 .523.27.625.798.66.485.033.97.07 1.455.11.523.043.797-.046.797-.54v-.982c0-.503-.317-.638-.797-.677-.485-.04-.97-.076-1.455-.11a2.725 2.725 0 0 0-.193-.007Zm-.023.347c.63.042 1.258.09 1.887.142.1.009.201.104.201.219v1.087c0 .1-.1.193-.2.184-.63-.053-1.258-.1-1.888-.142a.223.223 0 0 1-.202-.214v-1.088c0-.115.087-.196.202-.188ZM36.182 18.018v1.59c0 .503-.265.614-.799.63-.464.015-.93.032-1.394.053-.495.022-.798-.072-.798-.57v-1.59l.38-.02v1.657c0 .101.086.183.201.178.61-.028 1.219-.051 1.828-.069a.192.192 0 0 0 .193-.192v-1.658l.39-.01ZM41.054 18.02c.936.022 1.872.057 2.807.105v.354c-.808-.04-1.618-.073-2.427-.095v.541c.72.02 1.44.047 2.159.082v.355c-.72-.035-1.44-.063-2.16-.082v.594c.81.022 1.62.054 2.428.095v.355a104.87 104.87 0 0 0-2.807-.106V18.02ZM32.239 18.184v.354c-.809.05-1.617.11-2.424.178v.541c.718-.06 1.437-.114 2.156-.16v.354c-.72.046-1.438.1-2.156.16v.595c.807-.069 1.615-.128 2.424-.177v.354c-.935.057-1.87.128-2.803.21v-2.199c.933-.083 1.868-.152 2.803-.21ZM48.566 18.473c.983.096 1.965.205 2.946.329v.354c-.424-.053-.849-.104-1.274-.152v1.844l-.388-.043V18.96c-.427-.046-.855-.09-1.284-.132v-.355ZM35.562 22.68a42.816 42.816 0 0 1 6.58-.024c.132.01.261.04.384.093.764.32 2.12 1.022 3.628 1.882.066.038.129.082.186.133.4.351 1.412 1.384 1.412 1.384l-.316-.062a.334.334 0 0 1-.123-.051 24.166 24.166 0 0 0-2.352-1.378.865.865 0 0 0-.296-.087c-.38-.04-.893-.076-1.23-.09a.952.952 0 0 1-.44-.116c-.31-.157-1.06-.496-1.435-.639a.894.894 0 0 0-.398-.072c-.642.009-2.106.056-2.853.102a.362.362 0 0 1-.076-.004l-.356-.055c1.01-.174 3.507-.396 4.54-.45l-.42-.14a.867.867 0 0 0-.252-.044 62.421 62.421 0 0 0-1.371-.016h-.221c-.981.002-2.243.026-3.407.114a.89.89 0 0 0-.295.073c-.47.206-1.617.826-2.767 1.463l-.255.142-.87.486.17-.22a.2.2 0 0 1 .065-.058l.363-.24.118-.078.229-.153c.024-.016.039-.028.069-.05.346-.26.892-.72 1.218-1.004a.967.967 0 0 0 .188-.222c.105-.17.22-.354.29-.456a.388.388 0 0 1 .293-.162Z" fill="#fff"/><path d="M36.436 24.42c.041 0 .067.044.047.08l-.872 1.498a.385.385 0 0 1-.226.183l-1.636.51c-.19.058-.35.088-.548.104-.362.027-1.44.06-1.44.06l.024-.05a.107.107 0 0 1 .055-.054l.51-.216a.247.247 0 0 0 .097-.073l.787-.966a.53.53 0 0 1 .156-.132 16.84 16.84 0 0 1 2.093-.9.74.74 0 0 1 .208-.033l.745-.01ZM32.366 27.112a.08.08 0 0 1 .08.047.404.404 0 0 1-.01.321.176.176 0 0 1-.112.09l-.358.079a.033.033 0 0 1-.04-.035l.033-.419a.058.058 0 0 1 .054-.053l.353-.03ZM40.299 25.343a.263.263 0 0 1 .157.022l.374.178c.037.018.064.05.073.091.05.213.113.495.155.735a.433.433 0 0 1-.053.29c-.154.268-.472.75-.65 1.009a.263.263 0 0 0-.031.197c.08.444.416 1.995.416 1.995l-.211-.192a.305.305 0 0 1-.088-.133 53.976 53.976 0 0 1-.56-1.801.23.23 0 0 1 .043-.21c.22-.267.541-.694.729-.965.052-.076.07-.16.038-.222a6.575 6.575 0 0 0-.185-.344.154.154 0 0 0-.087-.071l-.253-.081a.211.211 0 0 0-.136.002c-.552.2-1.295.488-1.75.676-.066.028-.093.03-.174.017-.131-.019-.514-.087-.702-.123a.05.05 0 0 1-.034-.074l.223-.385a.215.215 0 0 1 .14-.102c.716-.163 1.664-.35 2.566-.509Z" fill="#fff"/><path d="m32.505 25.747-.147.18-.024.023c-.13.095-.673.51-.82.627a.164.164 0 0 0-.068.113 9.847 9.847 0 0 0-.104.726c-.005.057-.029.085-.087.108-.252.102-.55.21-.792.306a.319.319 0 0 0-.097.052c-.024.019-.345.304-.345.304s.698-.171.954-.229a.18.18 0 0 1 .143.017 3 3 0 0 0 .188.076.278.278 0 0 0 .187.008c.289-.064.774-.18 1.032-.246a.865.865 0 0 0 .32-.15c.124-.086.438-.32.438-.32l-.01.064a.087.087 0 0 1-.024.046c-.063.076-.175.2-.23.258a.9.9 0 0 1-.362.244c-.734.305-1.987.778-2.927 1.102a.289.289 0 0 0-.134.086c-.05.05-.115.123-.115.123a43 43 0 0 0 1 .083c.076.009.13.033.188.083.192.165.83.819 1.02 1.046 0 0-1.81.3-2.65.508a.231.231 0 0 0-.178.174 25.89 25.89 0 0 0-.233 1.025s-.058-.019-.14-.066a.56.56 0 0 1-.145-.123 8.341 8.341 0 0 1-.68-.84c-.047-.07-.066-.157-.009-.227.17-.208.512-.59.7-.785a.487.487 0 0 0 .073-.111c.063-.126.147-.444.176-.559l.01-.037v-.005l-.005.003-.034.022-.154.097c-.049.03-.062.044-.082.086-.03.064-.084.165-.125.235a.345.345 0 0 1-.068.073c-.24.183-.506.38-.695.513-.013.009-.03.005-.04-.006a2.475 2.475 0 0 1-.144-.165.12.12 0 0 1-.022-.071c0-.048.005-.132.01-.194.005-.074.026-.11.116-.203.101-.104.211-.214.327-.326.284-.238 1-.818 2.279-1.728a.28.28 0 0 0 .063-.061c.135-.181.516-.675.61-.792a.282.282 0 0 1 .045-.045c.15-.119.225-.17.378-.266a60.733 60.733 0 0 1 1.433-.856ZM29.613 31.897l-.157 1.086-.537-.628c.098-.211.383-.41.694-.458ZM33.148 32.473a11.2 11.2 0 0 1-.828 1.197.29.29 0 0 1-.122.085c-.264.098-.704.247-1.029.346l1.98-1.628ZM44.559 25.42a.595.595 0 0 1 .436.01c1.08.452 2.894 1.515 3.903 2.264.097.073.136.122.161.24.237 1.074.327 2.735.178 4.133a.7.7 0 0 1-.083.268c-.64 1.303-1.359 2.53-2.116 3.477l.002-.016c.01-.1.064-.669.067-.976 0-.035.016-.067.044-.088.14-.109.334-.264.443-.358a.509.509 0 0 0 .11-.125c.309-.497.86-1.538 1.082-2.164a1.14 1.14 0 0 0 .063-.476c-.071-.873-.209-2.082-.413-2.87a.485.485 0 0 0-.248-.313c-.177-.09-.523-.247-1.311-.563a1.116 1.116 0 0 1-.302-.18 48.152 48.152 0 0 0-1.828-1.456.628.628 0 0 0-.513-.108 31.58 31.58 0 0 0-1.095.269.457.457 0 0 1-.217.015 7.297 7.297 0 0 0-.175-.017l-.098-.009-.264-.021-.02-.001c.856-.401 1.679-.747 2.194-.935Z" fill="#fff"/><path d="M31.825 30.933a.483.483 0 0 1 .262-.01c.388.093 1.212.295 1.834.454a.458.458 0 0 1 .243.18l.135.225c.048.079.05.176.009.258-.113.218-.275.514-.445.82l-.13.23c-.237.42-.473.826-.607 1.039-.089.141-.138.203-.296.259-.612.215-1.372.472-1.824.618-.093.03-.124.085-.106.188.033.186.137.817.177 1.002.014.068.07.122.17.103.268-.05.979-.224.979-.224l-.335.307a.21.21 0 0 1-.08.047c-.194.064-.667.197-.814.23-.115.024-.189-.021-.218-.151 0 0-.202-.857-.275-1.148a2.259 2.259 0 0 0-.037-.126c-.054-.169-.185-.5-.26-.674a.156.156 0 0 1-.012-.064c.002-.198.039-.64.039-.64s.435.407.646.553c.047.034.076.04.134.026.29-.074.955-.294 1.32-.43a.508.508 0 0 0 .213-.152c.378-.455.852-1.163 1.125-1.697a.317.317 0 0 0 .022-.237l-.06-.194a.25.25 0 0 0-.132-.141 49.802 49.802 0 0 0-1.748-.628l.071-.023ZM43.363 28.742l.222.097a.54.54 0 0 1 .176.121c1.364 1.42 2.455 2.893 2.673 3.281a.62.62 0 0 1 .082.235c.245 2.07.034 4.265-.466 6.174a.593.593 0 0 1-.263.384 69.806 69.806 0 0 0-2.126 1.693l-.25.206c-.956.79-1.864 1.563-2.25 1.918-.097.09-.181.191-.25.303-.18.293-.457.798-.592 1.048l-.038.07-.043.08a29.222 29.222 0 0 1-.706-1.732c-.044-.126-.052-.192-.006-.36.22-.8 1.256-3.127 1.458-3.547v.172c0 .025-.004.05-.012.073-.09.275-.648 2.109-.761 2.904a1.105 1.105 0 0 0 0 .398c.05.371.272 1.052.272 1.052s.132-.275.255-.46c.06-.092.097-.135.195-.233.498-.492 1.348-1.251 2.234-2.015l.313-.27a88.876 88.876 0 0 1 1.896-1.582c.14-.112.191-.187.222-.401.154-1.053.199-2.943.106-4.319a1.466 1.466 0 0 0-.249-.726c-.336-.496-.739-.965-1.349-1.568a.602.602 0 0 1-.168-.317c-.178-.947-.575-2.679-.575-2.679ZM36.18 29.431s.124.4.243.836l.042.154c.075.283.143.563.167.74.024.17.02.216-.041.38-.147.39-.419 1.02-.708 1.662l-.124.276c-.355.78-.715 1.533-.889 1.859-.086.16-.167.265-.328.43a46.113 46.113 0 0 1-1.514 1.479c-.159.144-.202.267-.234.453-.052.3-.104.81-.118 1.075-.013.232.025.34.155.57.77 1.372 3.345 4.528 4.078 5.19.054.049.093.081.205.156l.46.299c.013.01.025.022.034.037l.127.223-.033-.016-.055-.027-.17-.085-.163-.081a35.16 35.16 0 0 1-.706-.36 1.09 1.09 0 0 1-.182-.124c-.86-.711-3.491-3.783-4.265-5.065-.193-.32-.213-.424-.187-.727.049-.564.124-1.274.19-1.585a.875.875 0 0 1 .225-.463 43.412 43.412 0 0 0 1.65-2.044l.203-.266c.873-1.156 1.677-2.313 1.977-2.902a.537.537 0 0 0 .076-.308c.004-.367-.114-1.082-.145-1.263a.341.341 0 0 1-.003-.085l.033-.418Z" fill="#fff"/><path d="m38.533 33.977.129.758a.388.388 0 0 1-.004.217c-.08.304-.446 1.909-.739 3.551l-.045.26c-.12.692-.224 1.379-.284 1.966-.034.334-.023.414.065.71.251.837 1.178 3.024 1.356 3.423.02.044.031.09.037.138l.067.516c-.297-.447-1.91-3.405-2.544-5.043-.075-.193-.09-.288-.007-.643.441-1.881 1.634-5.079 1.969-5.853Z" fill="#fff"/></g><defs><clipPath id="a"><path fill="#fff" d="M21.72 14h33.712v37H21.72z"/></clipPath></defs></svg>