<svg viewBox="0 0 77 64" fill="none" xmlns="http://www.w3.org/2000/svg"><g clip-path="url(#a)" fill="#000"><path d="m35.633 14-7.085 13.193 7.085 13.193h1.96l7.163-13.193-4.563-8.497-1.03 1.919 3.532 6.578-6.093 11.346-6.093-11.346L37.594 14h-1.96Zm4.06 0-7.162 13.193 4.563 8.497 1.03-1.918-3.532-6.579 6.093-11.346 6.093 11.346-7.085 13.193h1.96l7.085-13.193L41.653 14h-1.96Z"/><path fill-rule="evenodd" clip-rule="evenodd" d="M24.725 45.637V50.9h4.584v-1.061h-3.222v-1.066h2.823v-1.047h-2.823v-1.042h3.156v-1.047h-4.518ZM17.96 45.637V50.9h1.363v-1.648h1.64l.952 1.648h1.572l-1.141-1.936c.554-.306.953-.863.953-1.549 0-1.407-1.067-1.778-1.934-1.778H17.96Zm1.363 1.047h1.933c.25 0 .527.194.527.794 0 .203-.06.727-.527.727h-1.933v-1.52Z"/><path d="M30.547 45.637V50.9h1.363v-3.39l3.013 3.39h1.363v-5.263h-1.363V49l-3.013-3.362h-1.363ZM39.382 45.637l-2.32 5.263h1.563l.354-.896h2.65l.354.896h1.563l-2.32-5.263h-1.844Zm.922 1.008.912 2.312h-1.824l.912-2.312ZM51.086 45.637V50.9h4.366v-1.061H52.45v-4.202h-1.363ZM54.784 45.637v1.047h2.048V50.9h1.363v-4.216h2.048v-1.047h-5.459ZM44.186 45.637v3.557c0 1.49 1.512 1.806 2.71 1.806 1.2 0 2.711-.316 2.711-1.806v-3.557h-1.363v3.49c0 .542-.819.724-1.347.724-.529 0-1.348-.182-1.348-.724v-3.49h-1.363Z"/></g><defs><clipPath id="a"><path fill="#fff" d="M17.96 14h42.283v37H17.96z"/></clipPath></defs></svg>