<svg viewBox="0 0 76 64" fill="none" xmlns="http://www.w3.org/2000/svg"><g clip-path="url(#a)" fill="#000"><path d="M36.268 14.025c6.66-.446 12.42 4.592 12.866 11.251.445 6.66-4.592 12.42-11.252 12.866-6.66.446-12.42-4.592-12.865-11.252a12.085 12.085 0 0 1 11.251-12.865Zm.365 1.027c-6.092.243-10.835 5.378-10.592 11.47.242 6.093 5.377 10.835 11.47 10.593 6.092-.242 10.834-5.378 10.592-11.47a11.04 11.04 0 0 0-11.472-10.593h.002Z"/><path d="M33.964 16.992a9.981 9.981 0 0 1 3.66-.489.9.9 0 0 1 .382.065 10.711 10.711 0 0 1 3.138 4.072 11.736 11.736 0 0 1 .814 5.81 15.112 15.112 0 0 1-1.021 4.184h.969c.094-.245.18-.493.279-.736a5.045 5.045 0 0 1 2.97 1.475 4.97 4.97 0 0 1-2.972 1.476c-.093-.241-.185-.48-.27-.72h-8.911a.795.795 0 0 0-.413.148c-.326.164-.649.335-.975.5a.765.765 0 0 1-.383.067h-1.152a10.33 10.33 0 0 1-1.935-2.94h2.625c.187-.019.375 0 .554.059.436.188.871.378 1.307.57.329.194.723.079 1.086.108a6.08 6.08 0 0 0-.787-2.647 5.405 5.405 0 0 0-1.985-1.873 11.663 11.663 0 0 0-3.474-1.21 9.532 9.532 0 0 1 1.24-3.636c.854.194 1.695.446 2.516.753.881.313 1.715.746 2.479 1.286l.245-.12a9.558 9.558 0 0 0-1.656-1.464 24.651 24.651 0 0 0-2.704-1.715 9.566 9.566 0 0 1 2.85-2.354c.75.306 1.449.72 2.078 1.228a21.093 21.093 0 0 1 2.652 2.537l.315-.083c-.811-1.7-2.102-3.128-3.521-4.351Zm4.389 10.195a1.194 1.194 0 1 0 .724 2.276 1.194 1.194 0 0 0-.724-2.276ZM11.79 43.846c.333-.266.752-.399 1.177-.374v2.515a.367.367 0 0 0 .38.354h5.093c.424-.014.837.135 1.155.416.3.288.47.686.47 1.102v1.525c-.005.504-.24.977-.64 1.282-.3.222-.665.337-1.037.33H11c.336-.537.676-1.075 1.005-1.612h5.88a.367.367 0 0 0 .408-.358v-1.081h-5.385a1.802 1.802 0 0 1-1.142-.35c-.348-.279-.553-.7-.556-1.146v-1.377c.004-.474.217-.922.58-1.226Z"/><path d="M13.72 43.475h6.177c-.32.516-.651 1.025-.966 1.543-1.41.016-2.823 0-4.234 0l-.978-1.543ZM22.006 43.477h1.803v2.886h2.523c.99-.962 1.974-1.933 2.97-2.89h2.478l-3.956 3.807a4420.57 4420.57 0 0 1 3.909 3.716h-2.499l-3.032-2.93h-2.375v2.93h-1.803a1569.73 1569.73 0 0 1-.018-7.519ZM34.405 43.54c.241-.046.487-.066.732-.059h4.056a2.721 2.721 0 0 1 2.102 1.012c.37.47.572 1.05.572 1.647v2.237a2.648 2.648 0 0 1-.993 2.028 2.807 2.807 0 0 1-1.729.588h-3.753c-.27.01-.54 0-.807-.032a2.645 2.645 0 0 1-2.316-2.64v-2.235c.014-.74.336-1.44.888-1.931.356-.31.786-.522 1.248-.615Zm.293 1.66a.872.872 0 0 0-.631.84v2.434a.87.87 0 0 0 .87.836h4.265a.87.87 0 0 0 .867-.831V46a.87.87 0 0 0-.872-.827h-3.952a2.207 2.207 0 0 0-.545.023l-.002.004ZM43.879 43.477h6.534a2.8 2.8 0 0 1 1.49.415 2.65 2.65 0 0 1 1.243 2.142v1.523c0 .51.043 1.077-.129 1.591-.27.846-.947 1.5-1.802 1.74-.491.15-1.01.108-1.516.112H43.88l-.002-7.523Zm1.802 1.688v4.14h4.784a.874.874 0 0 0 .815-.526 1.34 1.34 0 0 0 .072-.561v-2.23a.872.872 0 0 0-.88-.826l-4.79.003ZM58.092 43.477h2.478c1.41 2.504 2.822 5.01 4.234 7.52h-2.05c-.26-.45-.51-.9-.769-1.351h-3.58l-.933-1.478-1.59 2.834h-2.004c1.402-2.51 2.806-5.018 4.214-7.525Zm-.588 4.605h3.605c-.6-1.07-1.206-2.136-1.803-3.208-.6 1.066-1.192 2.14-1.802 3.208Z"/></g><defs><clipPath id="a"><path fill="#fff" d="M11 14h53.806v37H11z"/></clipPath></defs></svg>