<svg viewBox="0 0 77 64" fill="none" xmlns="http://www.w3.org/2000/svg"><g clip-path="url(#a)"><path d="M37.762 49.19c-9.166 0-16.676-7.547-16.676-16.714 0-2.061.368-4.013 1.067-5.853l9.756 19.621c.11.258.294.479.589.479.294 0 .479-.221.589-.479l4.491-10.05c.037-.11.11-.22.221-.22.11 0 .147.11.22.22l4.492 10.05c.11.258.295.479.59.479.294 0 .478-.221.588-.479l9.756-19.621c.7 1.84 1.067 3.791 1.067 5.853-.073 9.167-7.583 16.713-16.75 16.713Zm0-20.506c-.11 0-.147-.11-.22-.22l-5.228-11.78a15.702 15.702 0 0 1 5.448-.958c1.914 0 3.755.331 5.449.957l-5.228 11.78c-.073.148-.11.221-.22.221Zm-5.338 12.112c-.11 0-.147-.11-.22-.22l-8.468-17.082c1.51-2.32 3.534-4.27 6-5.633l6.112 13.584c.074.221.258.295.442.295h2.945c.22 0 .368-.037.478-.295l6.111-13.584a17.253 17.253 0 0 1 6.001 5.633l-8.54 17.081c-.038.11-.111.22-.222.22-.11 0-.147-.11-.22-.22l-3.203-7.289c-.11-.258-.258-.294-.479-.294h-2.945c-.22 0-.368.036-.479.294l-3.092 7.29c-.037.11-.11.22-.22.22Zm5.338 10.087A18.366 18.366 0 0 0 56.17 32.476 18.366 18.366 0 0 0 37.762 14.07a18.366 18.366 0 0 0-18.407 18.407 18.366 18.366 0 0 0 18.407 18.407Z" fill="#000"/></g><defs><clipPath id="a"><path fill="#fff" d="M19.24 14h37v37h-37z"/></clipPath></defs></svg>